<svg xmlns="http://www.w3.org/2000/svg" xmlns:xlink="http://www.w3.org/1999/xlink" width="1600" zoomAndPan="magnify" viewBox="0 0 1200 749.999995" height="1000" preserveAspectRatio="xMidYMid meet" version="1.0"><defs><clipPath id="1ac81275de"><path d="M 924 592 L 950 592 L 950 652.246094 L 924 652.246094 Z M 924 592 " clip-rule="nonzero"/></clipPath><clipPath id="4a1ebe6ccc"><path d="M 952 592 L 978 592 L 978 652.246094 L 952 652.246094 Z M 952 592 " clip-rule="nonzero"/></clipPath><clipPath id="d8579a5460"><path d="M 850.253906 328.996094 L 1094.753906 328.996094 L 1094.753906 579 L 850.253906 579 Z M 850.253906 328.996094 " clip-rule="nonzero"/></clipPath></defs><rect x="-120" width="1440" fill="#ffffff" y="-74.999999" height="899.999994" fill-opacity="1"/><rect x="-120" width="1440" fill="#f4efef" y="-74.999999" height="899.999994" fill-opacity="1"/><path fill="#000000" d="M 886.015625 610.785156 C 886.015625 612.558594 885.867188 615.816406 882.160156 617.003906 C 880.945312 617.300781 879.710938 617.449219 878.457031 617.445312 L 875.492188 617.445312 L 875.492188 598.050781 L 879.9375 598.050781 C 882.308594 598.195312 884.828125 598.195312 885.570312 600.417969 C 885.785156 601.394531 885.933594 602.382812 886.015625 603.378906 Z M 875.640625 622.628906 L 878.753906 622.628906 C 882.753906 622.777344 886.164062 623.222656 887.496094 626.628906 C 887.792969 627.84375 887.941406 629.078125 887.941406 630.328125 L 887.941406 638.324219 C 887.941406 642.175781 887.644531 643.953125 886.164062 645.136719 C 885.273438 645.878906 884.234375 646.171875 881.421875 646.320312 L 875.640625 646.320312 Z M 890.609375 621.296875 C 889.726562 620.558594 888.742188 620.015625 887.644531 619.667969 C 888.496094 619.210938 889.230469 618.613281 889.84375 617.871094 C 890.460938 617.125 890.914062 616.292969 891.203125 615.375 C 891.535156 614.0625 891.683594 612.730469 891.644531 611.375 L 891.644531 602.789062 C 891.5 600.417969 891.351562 597.753906 889.570312 595.828125 C 888.625 594.855469 887.515625 594.121094 886.246094 593.628906 C 884.980469 593.140625 883.667969 592.933594 882.308594 593.015625 L 870.75 593.015625 C 870.488281 593.042969 870.269531 593.15625 870.097656 593.355469 C 869.925781 593.554688 869.847656 593.789062 869.859375 594.050781 L 869.859375 650.765625 C 869.859375 651.355469 870.15625 651.800781 870.75 651.800781 L 882.605469 651.800781 C 884.058594 651.863281 885.472656 651.664062 886.851562 651.203125 C 888.230469 650.746094 889.484375 650.054688 890.609375 649.136719 C 893.277344 646.617188 893.722656 643.65625 893.722656 640.398438 L 893.722656 630.625 C 893.722656 627.367188 893.722656 623.8125 890.609375 621.296875 Z M 890.609375 621.296875 " fill-opacity="1" fill-rule="nonzero"/><path fill="#000000" d="M 914.914062 604.710938 L 914.914062 613.597656 C 914.914062 614.78125 914.914062 617.300781 912.097656 618.1875 C 911.105469 618.621094 910.070312 618.820312 908.988281 618.78125 L 902.613281 618.78125 L 902.613281 598.050781 L 909.132812 598.050781 C 910.429688 597.992188 911.664062 598.238281 912.839844 598.789062 C 914.765625 599.824219 914.765625 602.34375 914.914062 604.710938 Z M 913.285156 623.371094 C 913.730469 623.222656 914.027344 623.074219 914.46875 622.925781 C 915.195312 622.667969 915.875 622.324219 916.515625 621.898438 C 917.15625 621.472656 917.734375 620.976562 918.25 620.410156 C 918.765625 619.839844 919.207031 619.21875 919.570312 618.542969 C 919.933594 617.867188 920.210938 617.15625 920.398438 616.410156 C 920.722656 615.148438 920.871094 613.863281 920.84375 612.558594 L 920.84375 603.230469 C 920.695312 601.601562 920.695312 597.753906 917.433594 595.085938 C 914.765625 593.015625 911.800781 593.015625 908.839844 592.867188 L 897.722656 592.867188 C 897.5 592.890625 897.316406 592.988281 897.171875 593.160156 C 897.027344 593.332031 896.964844 593.53125 896.980469 593.753906 L 896.980469 650.617188 C 896.964844 650.839844 897.027344 651.039062 897.171875 651.210938 C 897.316406 651.382812 897.5 651.480469 897.722656 651.503906 L 901.722656 651.503906 C 901.84375 651.507812 901.960938 651.492188 902.070312 651.445312 C 902.183594 651.402344 902.28125 651.339844 902.363281 651.253906 C 902.449219 651.171875 902.511719 651.074219 902.554688 650.960938 C 902.597656 650.851562 902.617188 650.734375 902.613281 650.617188 L 902.613281 623.8125 L 907.355469 623.8125 L 917.433594 650.914062 C 917.503906 651.09375 917.621094 651.242188 917.785156 651.351562 C 917.949219 651.460938 918.128906 651.511719 918.324219 651.503906 L 922.472656 651.503906 C 922.710938 651.488281 922.914062 651.394531 923.085938 651.226562 C 923.253906 651.058594 923.347656 650.855469 923.363281 650.617188 C 923.363281 650.320312 923.363281 650.171875 923.214844 650.023438 Z M 913.285156 623.371094 " fill-opacity="1" fill-rule="nonzero"/><g clip-path="url(#1ac81275de)"><path fill="#000000" d="M 929.882812 605.453125 C 929.882812 602.195312 930.773438 599.972656 932.847656 598.640625 C 934.003906 597.835938 935.289062 597.441406 936.703125 597.457031 C 937.921875 597.421875 939.058594 597.71875 940.109375 598.34375 C 941.050781 598.886719 941.789062 599.628906 942.332031 600.566406 C 943.371094 602.640625 943.667969 605.304688 943.667969 609.746094 L 943.667969 637.4375 C 943.519531 640.398438 943.371094 643.65625 940.703125 645.582031 C 939.585938 646.507812 938.300781 646.953125 936.847656 646.914062 C 936.195312 646.953125 935.550781 646.890625 934.914062 646.730469 C 934.28125 646.570312 933.683594 646.316406 933.128906 645.972656 C 932.570312 645.628906 932.078125 645.207031 931.652344 644.710938 C 931.222656 644.214844 930.882812 643.667969 930.625 643.0625 C 930.097656 641.023438 929.898438 638.949219 930.03125 636.84375 Z M 944.703125 594.496094 C 943.542969 593.722656 942.292969 593.144531 940.953125 592.765625 C 939.609375 592.386719 938.242188 592.222656 936.847656 592.273438 L 936.554688 592.273438 C 931.070312 592.273438 926.625 595.085938 925.140625 599.679688 C 924.566406 601.613281 924.222656 603.585938 924.105469 605.601562 L 924.105469 638.472656 C 924.25 641.582031 924.398438 645.136719 926.917969 648.394531 C 929.734375 651.800781 934.476562 652.246094 936.40625 652.246094 C 943.371094 652.246094 946.1875 648.542969 947.074219 646.914062 C 948.707031 644.398438 948.855469 641.878906 949.003906 638.917969 L 949.003906 607.675781 C 949.152344 603.082031 949.152344 597.753906 944.703125 594.496094 Z M 944.703125 594.496094 " fill-opacity="1" fill-rule="nonzero"/></g><g clip-path="url(#4a1ebe6ccc)"><path fill="#000000" d="M 958.191406 605.453125 C 958.191406 602.195312 959.082031 599.972656 961.007812 598.640625 C 962.1875 597.90625 963.472656 597.558594 964.859375 597.605469 C 966.148438 597.496094 967.332031 597.792969 968.417969 598.492188 C 969.355469 599.035156 970.097656 599.777344 970.640625 600.714844 C 971.679688 602.640625 971.828125 605.453125 971.828125 609.894531 L 971.828125 637.4375 C 971.828125 640.546875 971.679688 643.804688 969.011719 645.730469 C 967.875 646.609375 966.589844 647.003906 965.15625 646.914062 C 964.503906 646.957031 963.855469 646.902344 963.21875 646.75 C 962.578125 646.597656 961.976562 646.359375 961.40625 646.03125 C 960.839844 645.699219 960.332031 645.296875 959.886719 644.816406 C 959.441406 644.335938 959.074219 643.800781 958.785156 643.210938 C 958.257812 641.171875 958.058594 639.097656 958.191406 636.992188 Z M 972.863281 594.496094 C 971.730469 593.722656 970.507812 593.144531 969.1875 592.765625 C 967.871094 592.386719 966.527344 592.222656 965.15625 592.273438 L 964.859375 592.273438 C 959.230469 592.273438 954.929688 595.085938 953.300781 599.679688 C 952.765625 601.617188 952.46875 603.589844 952.410156 605.601562 L 952.410156 638.472656 C 952.558594 641.730469 952.558594 645.285156 955.078125 648.542969 C 958.042969 651.949219 962.636719 652.246094 964.710938 652.246094 C 971.53125 652.246094 974.492188 648.542969 975.382812 646.914062 C 977.011719 644.398438 977.160156 641.878906 977.308594 639.066406 L 977.308594 607.675781 C 977.308594 603.082031 977.308594 597.753906 972.863281 594.496094 Z M 972.863281 594.496094 " fill-opacity="1" fill-rule="nonzero"/></g><path fill="#000000" d="M 992.871094 616.113281 L 1004.726562 593.753906 C 1004.890625 593.507812 1004.890625 593.261719 1004.726562 593.015625 C 1004.574219 592.710938 1004.328125 592.5625 1003.988281 592.570312 L 999.539062 592.570312 C 999.199219 592.5625 998.953125 592.710938 998.800781 593.015625 L 986.203125 617.445312 L 986.203125 593.3125 C 986.207031 593.191406 986.1875 593.074219 986.144531 592.964844 C 986.101562 592.855469 986.039062 592.753906 985.953125 592.671875 C 985.867188 592.585938 985.769531 592.523438 985.660156 592.480469 C 985.546875 592.4375 985.433594 592.417969 985.3125 592.421875 L 981.3125 592.421875 C 981.074219 592.4375 980.871094 592.53125 980.699219 592.699219 C 980.53125 592.867188 980.4375 593.074219 980.421875 593.3125 L 980.421875 650.171875 C 980.417969 650.292969 980.4375 650.40625 980.480469 650.519531 C 980.523438 650.628906 980.585938 650.726562 980.671875 650.8125 C 980.757812 650.894531 980.855469 650.960938 980.964844 651.003906 C 981.078125 651.046875 981.191406 651.066406 981.3125 651.058594 L 985.164062 651.058594 C 985.429688 651.078125 985.664062 651 985.863281 650.828125 C 986.066406 650.652344 986.179688 650.4375 986.203125 650.171875 L 986.203125 628.847656 L 989.316406 622.925781 L 998.949219 650.46875 C 999.148438 650.808594 999.445312 651.007812 999.835938 651.058594 L 1004.136719 651.058594 C 1004.398438 651.035156 1004.617188 650.921875 1004.789062 650.71875 C 1004.960938 650.519531 1005.039062 650.289062 1005.023438 650.023438 C 1005.023438 649.875 1004.875 649.726562 1004.875 649.578125 Z M 992.871094 616.113281 " fill-opacity="1" fill-rule="nonzero"/><path fill="#000000" d="M 1026.960938 646.171875 L 1013.027344 646.171875 L 1013.027344 593.753906 C 1013.011719 593.515625 1012.917969 593.3125 1012.75 593.144531 C 1012.582031 592.976562 1012.378906 592.882812 1012.136719 592.867188 L 1008.136719 592.867188 C 1007.898438 592.882812 1007.695312 592.976562 1007.527344 593.144531 C 1007.355469 593.3125 1007.265625 593.515625 1007.246094 593.753906 L 1007.246094 650.617188 C 1007.265625 650.855469 1007.355469 651.058594 1007.527344 651.226562 C 1007.695312 651.394531 1007.898438 651.488281 1008.136719 651.503906 L 1026.960938 651.503906 C 1027.199219 651.488281 1027.402344 651.394531 1027.570312 651.226562 C 1027.738281 651.058594 1027.832031 650.855469 1027.847656 650.617188 L 1027.847656 647.0625 C 1027.832031 646.824219 1027.738281 646.621094 1027.570312 646.453125 C 1027.402344 646.28125 1027.199219 646.191406 1026.960938 646.171875 Z M 1026.960938 646.171875 " fill-opacity="1" fill-rule="nonzero"/><path fill="#000000" d="M 1048.152344 592.867188 L 1043.855469 592.867188 C 1043.433594 592.875 1043.136719 593.074219 1042.964844 593.457031 L 1034.8125 617.742188 L 1026.664062 593.457031 C 1026.609375 593.261719 1026.5 593.109375 1026.328125 592.996094 C 1026.160156 592.882812 1025.976562 592.839844 1025.773438 592.867188 L 1021.625 592.867188 C 1021.285156 592.859375 1021.035156 593.007812 1020.882812 593.3125 C 1020.761719 593.542969 1020.710938 593.789062 1020.734375 594.050781 L 1031.851562 625.589844 L 1031.851562 650.617188 C 1031.875 650.878906 1031.992188 651.09375 1032.191406 651.265625 C 1032.390625 651.4375 1032.625 651.519531 1032.886719 651.503906 L 1036.742188 651.503906 C 1036.859375 651.507812 1036.976562 651.492188 1037.085938 651.445312 C 1037.199219 651.402344 1037.296875 651.339844 1037.378906 651.253906 C 1037.464844 651.171875 1037.527344 651.074219 1037.574219 650.960938 C 1037.617188 650.851562 1037.636719 650.734375 1037.628906 650.617188 L 1037.628906 625.589844 L 1049.191406 594.050781 C 1049.351562 593.804688 1049.351562 593.558594 1049.191406 593.3125 C 1048.886719 593.058594 1048.542969 592.910156 1048.152344 592.867188 Z M 1048.152344 592.867188 " fill-opacity="1" fill-rule="nonzero"/><path fill="#000000" d="M 1074.386719 592.867188 L 1070.382812 592.867188 C 1070.140625 592.871094 1069.941406 592.96875 1069.789062 593.164062 C 1069.632812 593.328125 1069.53125 593.527344 1069.496094 593.753906 L 1069.789062 635.214844 C 1069.789062 636.402344 1069.9375 637.4375 1069.9375 638.621094 L 1069.9375 640.546875 L 1058.082031 593.605469 C 1058.070312 593.40625 1057.992188 593.238281 1057.851562 593.097656 C 1057.710938 592.957031 1057.539062 592.878906 1057.339844 592.867188 L 1051.414062 592.867188 C 1051.175781 592.882812 1050.972656 592.976562 1050.800781 593.144531 C 1050.632812 593.3125 1050.539062 593.515625 1050.523438 593.753906 L 1050.523438 650.617188 C 1050.519531 650.734375 1050.539062 650.851562 1050.582031 650.960938 C 1050.625 651.074219 1050.6875 651.171875 1050.773438 651.253906 C 1050.859375 651.339844 1050.957031 651.402344 1051.066406 651.445312 C 1051.179688 651.492188 1051.292969 651.507812 1051.414062 651.503906 L 1055.265625 651.503906 C 1055.5625 651.503906 1055.710938 651.503906 1055.859375 651.355469 C 1056.007812 651.058594 1056.15625 650.914062 1056.15625 650.617188 L 1055.859375 610.339844 L 1055.859375 604.859375 L 1067.269531 650.914062 C 1067.324219 651.109375 1067.4375 651.261719 1067.605469 651.375 C 1067.773438 651.488281 1067.960938 651.53125 1068.160156 651.503906 L 1074.089844 651.503906 C 1074.355469 651.519531 1074.585938 651.441406 1074.789062 651.269531 C 1074.988281 651.097656 1075.101562 650.878906 1075.125 650.617188 L 1075.125 593.753906 C 1075.148438 593.644531 1075.144531 593.535156 1075.117188 593.425781 C 1075.089844 593.316406 1075.042969 593.21875 1074.96875 593.132812 C 1074.898438 593.046875 1074.808594 592.980469 1074.707031 592.933594 C 1074.605469 592.886719 1074.496094 592.863281 1074.386719 592.867188 Z M 1074.386719 592.867188 " fill-opacity="1" fill-rule="nonzero"/><g clip-path="url(#d8579a5460)"><path fill="#000000" d="M 1094.691406 362.757812 L 1094.691406 355.648438 L 1091.875 354.167969 C 1089.800781 353.132812 1041.335938 328.996094 974.050781 328.996094 L 970.9375 328.996094 C 903.652344 328.996094 855.1875 353.132812 853.261719 354.167969 L 850.296875 355.648438 L 850.296875 362.609375 C 849.851562 391.1875 853.261719 463.890625 897.722656 520.308594 C 933.738281 566.210938 967.675781 576.726562 971.382812 577.761719 L 972.863281 578.207031 L 974.347656 577.910156 C 975.828125 577.464844 1010.359375 567.398438 1047.410156 520.457031 C 1091.726562 464.039062 1095.28125 391.335938 1094.691406 362.757812 Z M 1094.691406 362.757812 " fill-opacity="1" fill-rule="nonzero"/></g><path fill="#ffffff" d="M 972.863281 570.65625 C 970.046875 569.914062 938.035156 559.992188 903.355469 516.015625 C 857.855469 458.117188 857.707031 382.449219 858.003906 364.53125 L 858.003906 360.683594 C 858.105469 360.683594 858.152344 360.636719 858.152344 360.535156 L 858.152344 360.386719 L 859.1875 359.941406 C 861.707031 358.90625 867.042969 356.535156 874.898438 353.722656 C 890.335938 348.105469 906.144531 343.863281 922.320312 341.003906 C 938.5 338.144531 954.804688 336.707031 971.234375 336.695312 L 974.347656 336.695312 C 990.703125 336.726562 1006.929688 338.171875 1023.035156 341.03125 C 1039.136719 343.890625 1054.871094 348.121094 1070.234375 353.722656 C 1078.089844 356.535156 1083.574219 358.90625 1085.945312 359.941406 L 1086.984375 360.386719 L 1086.984375 360.535156 L 1087.132812 360.683594 L 1087.132812 364.53125 C 1087.574219 382.449219 1087.425781 458.117188 1041.78125 516.015625 C 1007.097656 559.992188 975.53125 569.914062 972.863281 570.65625 Z M 1044.003906 517.941406 C 1087.574219 462.707031 1090.984375 391.484375 1090.390625 363.496094 L 1090.390625 358.3125 L 1089.503906 357.871094 C 1087.574219 356.832031 1040 333.289062 974.050781 333.289062 L 970.789062 333.289062 C 904.835938 333.289062 857.410156 356.832031 855.335938 357.871094 L 854.445312 358.3125 L 854.445312 363.199219 C 853.855469 391.335938 857.261719 462.558594 900.835938 517.792969 C 935.960938 562.511719 968.566406 572.875 972.269531 573.765625 L 972.714844 573.914062 L 973.160156 573.765625 C 974.789062 573.46875 1007.839844 563.695312 1044.003906 517.941406 Z M 1044.003906 517.941406 " fill-opacity="1" fill-rule="nonzero"/><path fill="#ffffff" d="M 1056.75 396.371094 C 1040.59375 379.636719 1038.816406 376.972656 1038.816406 370.011719 C 1038.816406 363.199219 1041.78125 362.3125 1044.742188 362.3125 C 1046.613281 362.363281 1048.4375 362.660156 1050.226562 363.199219 C 1061.9375 366.605469 1061.9375 372.972656 1061.9375 377.710938 L 1061.9375 384.523438 C 1061.9375 384.773438 1062.003906 385.007812 1062.136719 385.222656 C 1062.269531 385.433594 1062.449219 385.597656 1062.675781 385.707031 C 1065.640625 386.597656 1066.976562 387.1875 1069.9375 388.226562 C 1070.125 388.355469 1070.332031 388.40625 1070.558594 388.378906 C 1070.785156 388.347656 1070.976562 388.25 1071.125 388.078125 C 1071.316406 387.976562 1071.464844 387.832031 1071.570312 387.644531 C 1071.679688 387.457031 1071.726562 387.257812 1071.71875 387.039062 L 1071.71875 381.414062 C 1071.71875 374.304688 1071.71875 362.3125 1050.820312 356.242188 C 1036.148438 352.09375 1028.589844 356.535156 1028.589844 369.273438 C 1028.589844 379.785156 1035.109375 386.003906 1045.929688 396.515625 L 1048.003906 398.589844 C 1060.75 411.175781 1063.269531 415.175781 1063.269531 423.023438 C 1063.269531 425.984375 1062.824219 427.910156 1061.9375 429.09375 C 1061.046875 430.425781 1059.710938 430.871094 1057.488281 430.871094 C 1055.316406 430.820312 1053.191406 430.476562 1051.117188 429.835938 C 1045.484375 428.207031 1041.484375 425.984375 1038.964844 423.320312 C 1036 420.0625 1036 417.25 1036 411.621094 L 1036 405.699219 C 1036 405.105469 1035.703125 404.515625 1035.109375 404.515625 C 1031.851562 403.773438 1030.367188 403.476562 1027.402344 402.886719 C 1027.214844 402.828125 1027.027344 402.824219 1026.839844 402.878906 C 1026.652344 402.933594 1026.492188 403.03125 1026.367188 403.179688 C 1026.125 403.488281 1025.980469 403.832031 1025.921875 404.21875 L 1025.921875 414.878906 C 1025.921875 424.800781 1034.222656 432.5 1049.632812 436.941406 C 1053.34375 438.140625 1057.148438 438.785156 1061.046875 438.867188 C 1073.050781 438.867188 1073.050781 428.945312 1073.050781 424.800781 C 1073.199219 413.84375 1067.566406 407.476562 1056.75 396.371094 Z M 1024.144531 350.910156 C 1008.660156 348.097656 993.046875 346.617188 977.308594 346.46875 C 977.121094 346.425781 976.9375 346.429688 976.753906 346.480469 C 976.566406 346.535156 976.40625 346.628906 976.273438 346.765625 C 976.136719 346.898438 976.042969 347.058594 975.988281 347.242188 C 975.9375 347.429688 975.933594 347.613281 975.976562 347.800781 L 975.976562 352.539062 C 976 352.898438 976.140625 353.203125 976.390625 353.457031 C 976.644531 353.710938 976.953125 353.847656 977.308594 353.871094 C 984.570312 353.871094 988.425781 354.167969 995.390625 354.613281 L 995.390625 424.800781 C 995.386719 424.964844 995.410156 425.125 995.46875 425.28125 C 995.523438 425.4375 995.609375 425.578125 995.71875 425.703125 C 995.828125 425.828125 995.957031 425.925781 996.105469 426 C 996.253906 426.074219 996.410156 426.117188 996.578125 426.132812 C 999.6875 426.429688 1001.171875 426.429688 1004.285156 426.875 L 1004.433594 426.875 C 1004.769531 426.878906 1005.019531 426.730469 1005.171875 426.429688 C 1005.328125 426.339844 1005.449219 426.214844 1005.53125 426.050781 C 1005.609375 425.890625 1005.640625 425.71875 1005.617188 425.539062 L 1005.617188 355.648438 C 1012.582031 356.390625 1016.585938 356.980469 1023.847656 358.3125 C 1024.234375 358.359375 1024.578125 358.257812 1024.882812 358.019531 C 1025.191406 357.742188 1025.339844 357.394531 1025.328125 356.980469 L 1025.328125 352.242188 C 1025.261719 351.933594 1025.125 351.65625 1024.910156 351.421875 C 1024.699219 351.183594 1024.445312 351.011719 1024.144531 350.910156 Z M 969.453125 346.617188 C 956.21875 346.765625 943.078125 347.949219 930.03125 350.167969 C 929.875 350.167969 929.722656 350.195312 929.574219 350.253906 C 929.429688 350.316406 929.300781 350.398438 929.1875 350.511719 C 929.078125 350.625 928.992188 350.753906 928.933594 350.898438 C 928.871094 351.042969 928.84375 351.195312 928.847656 351.355469 L 928.847656 427.464844 C 928.902344 427.808594 929.050781 428.101562 929.289062 428.355469 C 929.566406 428.519531 929.859375 428.617188 930.179688 428.648438 L 930.328125 428.648438 C 943.238281 426.550781 956.230469 425.417969 969.308594 425.246094 C 969.472656 425.230469 969.628906 425.183594 969.777344 425.109375 C 969.921875 425.035156 970.050781 424.933594 970.164062 424.8125 C 970.273438 424.6875 970.355469 424.546875 970.414062 424.394531 C 970.46875 424.238281 970.496094 424.078125 970.492188 423.910156 L 970.492188 419.171875 C 970.46875 418.816406 970.320312 418.519531 970.046875 418.285156 C 969.957031 418.128906 969.832031 418.007812 969.671875 417.929688 C 969.507812 417.847656 969.339844 417.816406 969.160156 417.839844 C 959.035156 417.96875 948.957031 418.710938 938.925781 420.0625 L 938.925781 390.003906 C 947.136719 388.851562 955.386719 388.160156 963.675781 387.929688 C 963.835938 387.945312 963.992188 387.921875 964.144531 387.867188 C 964.296875 387.8125 964.429688 387.730469 964.546875 387.613281 C 964.660156 387.5 964.746094 387.367188 964.800781 387.214844 C 964.855469 387.0625 964.875 386.90625 964.859375 386.746094 L 964.859375 382.007812 C 964.828125 381.6875 964.730469 381.390625 964.5625 381.117188 C 964.316406 380.878906 964.019531 380.777344 963.675781 380.820312 C 955.390625 381.003906 947.140625 381.644531 938.925781 382.746094 L 938.925781 356.09375 C 949.003906 354.671875 959.128906 353.933594 969.308594 353.871094 C 969.476562 353.890625 969.640625 353.871094 969.800781 353.820312 C 969.964844 353.765625 970.109375 353.683594 970.234375 353.574219 C 970.359375 353.460938 970.460938 353.328125 970.53125 353.171875 C 970.601562 353.019531 970.636719 352.855469 970.640625 352.6875 L 970.640625 347.949219 C 970.664062 347.769531 970.632812 347.597656 970.554688 347.4375 C 970.472656 347.277344 970.351562 347.148438 970.195312 347.058594 C 970.042969 346.757812 969.792969 346.609375 969.453125 346.617188 Z M 918.917969 352.09375 C 915.953125 352.6875 914.46875 352.984375 911.507812 353.722656 C 911.203125 353.753906 910.953125 353.878906 910.75 354.109375 C 910.550781 354.339844 910.457031 354.605469 910.46875 354.90625 L 911.0625 410.140625 C 911.0625 413.84375 911.210938 417.25 911.359375 420.359375 C 903.949219 401.109375 896.09375 381.265625 888.089844 361.277344 C 887.964844 360.988281 887.761719 360.777344 887.480469 360.636719 C 887.203125 360.5 886.910156 360.464844 886.605469 360.535156 C 882.160156 362.015625 879.9375 362.757812 875.640625 364.53125 C 875.382812 364.617188 875.171875 364.769531 875.007812 364.984375 C 874.84375 365.203125 874.757812 365.445312 874.75 365.71875 L 874.75 441.828125 C 874.761719 442.25 874.957031 442.546875 875.34375 442.71875 C 875.492188 443.011719 875.789062 443.011719 876.085938 443.011719 C 876.257812 443.035156 876.40625 442.984375 876.527344 442.867188 C 879.195312 441.828125 880.679688 441.382812 883.347656 440.347656 C 883.621094 440.289062 883.84375 440.148438 884.015625 439.921875 C 884.183594 439.695312 884.257812 439.445312 884.234375 439.164062 C 884.085938 421.246094 884.085938 403.179688 883.941406 385.265625 C 883.941406 380.523438 883.941406 377.859375 883.792969 374.453125 C 891.5 394.445312 899.203125 413.84375 906.46875 432.351562 C 906.507812 432.503906 906.578125 432.644531 906.679688 432.765625 C 906.777344 432.886719 906.898438 432.984375 907.042969 433.054688 C 907.183594 433.125 907.332031 433.164062 907.492188 433.171875 C 907.648438 433.175781 907.800781 433.152344 907.949219 433.09375 C 912.542969 432.054688 914.914062 431.464844 919.507812 430.574219 C 919.800781 430.523438 920.042969 430.386719 920.238281 430.164062 C 920.429688 429.941406 920.535156 429.683594 920.546875 429.390625 L 920.546875 353.28125 C 920.527344 352.878906 920.378906 352.53125 920.101562 352.242188 C 919.726562 352.042969 919.332031 351.992188 918.917969 352.09375 Z M 918.917969 352.09375 " fill-opacity="1" fill-rule="nonzero"/><path fill="#ffffff" d="M 1015.25 524.308594 C 1014.507812 524.898438 1013.769531 525.34375 1012.878906 525.9375 C 1010.804688 527.417969 1008.582031 528.601562 1006.507812 529.933594 C 1005.503906 530.628906 1004.464844 531.269531 1003.394531 531.859375 C 995.835938 536.597656 986.648438 541.78125 977.011719 544.742188 C 974.382812 545.542969 971.714844 546.183594 969.011719 546.667969 C 966.757812 547.078125 964.484375 547.277344 962.191406 547.257812 L 961.75 547.257812 C 958.960938 547.238281 956.195312 546.992188 953.449219 546.519531 C 958.71875 548.347656 964.136719 549.402344 969.707031 549.679688 C 975.28125 549.957031 980.777344 549.445312 986.203125 548.148438 C 992.515625 546.578125 998.394531 544.011719 1003.839844 540.449219 C 1006.480469 538.300781 1008.796875 535.847656 1010.78125 533.085938 C 1012.765625 530.320312 1014.355469 527.347656 1015.546875 524.160156 C 1015.398438 524.160156 1015.25 524.160156 1015.25 524.308594 Z M 963.675781 544.445312 C 969.9375 543.703125 975.867188 541.878906 981.460938 538.964844 C 982.398438 538.5625 983.289062 538.066406 984.128906 537.484375 C 984.867188 537.191406 985.609375 536.746094 986.351562 536.449219 C 991.539062 533.785156 997.019531 530.824219 1003.691406 527.121094 C 1006.210938 525.9375 1008.433594 524.601562 1010.804688 523.269531 L 1013.472656 521.789062 C 1014.507812 521.199219 1015.546875 520.753906 1016.4375 520.160156 C 1016.585938 520.011719 1016.585938 520.011719 1016.734375 520.011719 C 1017.640625 516.660156 1018.230469 513.257812 1018.511719 509.796875 C 1011.84375 513.054688 1001.914062 516.015625 987.386719 518.976562 C 968.863281 522.679688 950.632812 521.050781 934.328125 514.089844 C 923.363281 509.5 918.175781 503.132812 916.101562 499.726562 C 916.386719 502.222656 916.832031 504.691406 917.433594 507.128906 C 918.316406 510.511719 919.492188 513.785156 920.972656 516.949219 C 922.449219 520.113281 924.199219 523.121094 926.226562 525.964844 C 928.253906 528.8125 930.519531 531.453125 933.027344 533.886719 C 935.535156 536.320312 938.242188 538.507812 941.148438 540.449219 L 941.148438 540.300781 L 942.628906 541.1875 C 944.1875 542.050781 945.816406 542.742188 947.519531 543.261719 C 951.015625 544.203125 954.570312 544.695312 958.191406 544.742188 C 959.96875 544.742188 961.75 544.59375 963.675781 544.445312 Z M 1021.773438 520.457031 C 1021.625 520.308594 1021.625 520.308594 1021.476562 520.308594 C 1020.992188 520.34375 1020.546875 520.492188 1020.140625 520.753906 C 1019.992188 520.902344 1019.84375 521.050781 1019.695312 521.050781 C 1019.546875 521.199219 1019.402344 521.199219 1019.253906 521.34375 C 1017.867188 525.082031 1016.039062 528.585938 1013.769531 531.859375 C 1016.964844 528.5625 1019.679688 524.910156 1021.921875 520.902344 L 1021.773438 520.902344 Z M 1023.996094 506.390625 C 1023.699219 506.6875 1023.550781 506.6875 1023.402344 506.980469 C 1023.082031 507.144531 1022.785156 507.34375 1022.511719 507.574219 C 1022.191406 511.152344 1021.5 514.65625 1020.4375 518.089844 C 1022.214844 517.496094 1022.957031 518.234375 1023.105469 518.679688 C 1023.105469 518.828125 1023.105469 518.828125 1023.253906 518.828125 C 1026.261719 513 1028.136719 506.832031 1028.886719 500.320312 C 1027.816406 502.792969 1026.1875 504.816406 1023.996094 506.390625 Z M 1022.511719 503.429688 C 1022.660156 503.28125 1022.808594 503.28125 1022.957031 503.132812 C 1024.484375 501.9375 1025.785156 500.527344 1026.847656 498.90625 C 1027.914062 497.28125 1028.691406 495.53125 1029.183594 493.65625 C 1029.183594 489.035156 1028.589844 484.496094 1027.402344 480.03125 C 1027.398438 479.789062 1027.300781 479.589844 1027.105469 479.441406 C 1026.828125 481.671875 1026.167969 483.78125 1025.121094 485.769531 C 1024.074219 487.757812 1022.710938 489.496094 1021.03125 490.988281 C 1022.039062 495.074219 1022.53125 499.222656 1022.511719 503.429688 Z M 937.589844 510.238281 C 951.078125 514.683594 958.488281 516.015625 968.269531 516.015625 C 971.828125 516.015625 975.976562 515.867188 981.015625 515.421875 C 995.390625 514.238281 1010.507812 509.5 1018.660156 505.5 C 1018.632812 501.515625 1018.238281 497.566406 1017.472656 493.65625 C 1014.863281 495.183594 1012.046875 495.875 1009.027344 495.730469 C 1005.617188 495.730469 1001.617188 495.136719 994.945312 493.507812 C 987.089844 491.582031 975.976562 484.917969 966.046875 479.144531 C 960.710938 475.886719 955.523438 472.925781 951.375 470.851562 C 935.21875 462.855469 926.03125 464.039062 923.660156 464.484375 C 922.203125 466.910156 920.9375 469.433594 919.863281 472.050781 C 918.792969 474.667969 917.921875 477.351562 917.257812 480.101562 C 916.589844 482.847656 916.136719 485.632812 915.890625 488.453125 C 915.648438 491.269531 915.621094 494.089844 915.804688 496.914062 C 916.988281 498.394531 922.472656 505.207031 937.589844 510.238281 Z M 945.890625 464.1875 C 952.785156 467.242188 959.503906 470.648438 966.046875 474.40625 C 978.050781 480.773438 990.351562 487.4375 998.800781 489.507812 C 1006.210938 491.433594 1012.285156 491.136719 1016.585938 489.066406 L 1016.585938 488.769531 C 1016.4375 488.472656 1016.4375 488.175781 1016.289062 487.878906 C 1012.730469 472.628906 993.613281 439.164062 960.414062 439.164062 C 959.082031 439.164062 957.746094 439.3125 956.265625 439.3125 C 953.191406 440.183594 950.214844 441.3125 947.332031 442.695312 C 944.453125 444.078125 941.710938 445.695312 939.109375 447.550781 C 936.507812 449.40625 934.085938 451.46875 931.839844 453.742188 C 929.59375 456.011719 927.558594 458.457031 925.734375 461.078125 C 927.332031 460.617188 928.960938 460.371094 930.625 460.339844 C 934.921875 460.488281 939.960938 461.820312 945.890625 464.1875 Z M 1019.992188 486.695312 C 1020.738281 485.777344 1021.382812 484.789062 1021.921875 483.734375 C 1025.921875 476.035156 1022.511719 467.445312 1020.882812 464.484375 C 1019.5 462.222656 1017.964844 460.066406 1016.28125 458.019531 C 1014.59375 455.972656 1012.777344 454.054688 1010.820312 452.257812 C 1008.867188 450.464844 1006.796875 448.816406 1004.613281 447.3125 C 1002.429688 445.808594 1000.148438 444.464844 997.777344 443.28125 C 995.40625 442.09375 992.960938 441.078125 990.445312 440.234375 C 987.929688 439.390625 985.367188 438.726562 982.761719 438.242188 C 980.152344 437.753906 977.523438 437.453125 974.871094 437.335938 C 972.222656 437.214844 969.578125 437.285156 966.933594 437.535156 C 989.609375 438.71875 1011.546875 459.003906 1019.992188 486.695312 Z M 1019.992188 486.695312 " fill-opacity="1" fill-rule="nonzero"/><path fill="#ffffff" d="M 994.796875 504.910156 C 994.796875 500.761719 994.796875 494.691406 989.90625 489.953125 C 990.503906 489.035156 990.949219 488.046875 991.242188 486.992188 C 991.933594 484.722656 992.230469 482.402344 992.128906 480.03125 L 992.128906 468.484375 C 991.980469 464.1875 991.390625 459.746094 987.832031 455.894531 C 984.71875 452.34375 979.976562 450.417969 974.347656 450.417969 L 958.933594 450.417969 C 958.070312 450.433594 957.246094 450.609375 956.453125 450.941406 C 955.65625 451.273438 954.953125 451.742188 954.335938 452.34375 C 953.757812 452.9375 953.316406 453.617188 953.007812 454.386719 C 952.699219 455.15625 952.550781 455.957031 952.558594 456.785156 L 952.707031 531.414062 C 952.695312 531.96875 952.757812 532.515625 952.894531 533.054688 C 953.027344 533.589844 953.234375 534.101562 953.507812 534.582031 C 953.78125 535.066406 954.113281 535.503906 954.507812 535.894531 C 954.898438 536.285156 955.335938 536.621094 955.820312 536.894531 C 956.859375 537.558594 957.996094 537.902344 959.230469 537.929688 L 974.9375 537.929688 C 977.507812 538.019531 980.007812 537.644531 982.4375 536.800781 C 984.863281 535.960938 987.058594 534.707031 989.019531 533.042969 L 989.167969 533.042969 C 994.355469 528.453125 994.796875 522.972656 994.945312 517.792969 L 994.945312 517.644531 Z M 994.796875 504.910156 " fill-opacity="1" fill-rule="nonzero"/><path fill="#000000" d="M 974.050781 486.546875 C 972.863281 486.992188 972.121094 486.992188 969.308594 487.140625 L 966.34375 487.140625 C 965.898438 487.140625 965.75 486.992188 965.75 486.546875 L 965.75 462.558594 C 965.734375 462.390625 965.785156 462.246094 965.90625 462.125 C 966.027344 462.003906 966.171875 461.949219 966.34375 461.96875 L 971.085938 461.96875 C 973.195312 461.824219 975.21875 462.167969 977.160156 463.003906 C 977.828125 463.429688 978.273438 464.023438 978.496094 464.78125 C 978.875 466.085938 979.070312 467.417969 979.089844 468.777344 L 979.089844 478.847656 C 978.941406 481.070312 978.792969 485.066406 974.050781 486.546875 Z M 979.53125 525.195312 C 978.347656 526.085938 976.867188 526.527344 973.308594 526.675781 L 966.640625 526.675781 C 966.414062 526.652344 966.230469 526.554688 966.085938 526.382812 C 965.945312 526.210938 965.878906 526.011719 965.898438 525.789062 L 965.898438 496.023438 C 965.898438 495.875 965.898438 495.582031 966.34375 495.582031 L 969.453125 495.582031 C 972.714844 495.726562 976.125 495.875 978.347656 497.359375 C 979.660156 498.160156 980.550781 499.296875 981.015625 500.761719 C 981.441406 502.3125 981.640625 503.894531 981.609375 505.5 L 981.609375 516.460938 C 981.757812 521.34375 981.460938 523.714844 979.53125 525.195312 Z M 990.796875 505.5 C 990.796875 501.207031 990.796875 496.171875 986.5 492.617188 C 985.515625 491.800781 984.429688 491.160156 983.238281 490.695312 C 984.230469 490.019531 985.085938 489.203125 985.796875 488.238281 C 986.507812 487.269531 987.039062 486.214844 987.386719 485.066406 C 987.941406 483.230469 988.1875 481.355469 988.128906 479.441406 L 988.128906 467.59375 C 987.980469 464.335938 987.683594 460.488281 984.867188 457.523438 C 982.644531 455.007812 978.941406 453.675781 974.492188 453.675781 L 958.339844 453.675781 C 957.808594 453.675781 957.363281 453.875 957.003906 454.265625 C 956.695312 454.65625 956.546875 455.101562 956.5625 455.601562 L 956.5625 533.339844 C 956.613281 534.015625 956.910156 534.558594 957.449219 534.96875 C 957.769531 535.15625 958.117188 535.257812 958.488281 535.265625 L 974.789062 535.265625 C 976.886719 535.347656 978.929688 535.058594 980.921875 534.394531 C 982.914062 533.730469 984.722656 532.738281 986.351562 531.414062 C 990.203125 527.859375 990.648438 523.714844 990.796875 518.976562 Z M 990.796875 505.5 " fill-opacity="1" fill-rule="nonzero"/></svg>